<svg xmlns="http://www.w3.org/2000/svg" width="15" height="16.768" viewBox="0 0 15 16.768">
  <path id="Path_12608" data-name="Path 12608" d="M31.782,16.113a.655.655,0,0,1-.655.655H29.62A2.623,2.623,0,0,1,27,14.148V2.62A2.623,2.623,0,0,1,29.62,0h8.053a2.623,2.623,0,0,1,2.62,2.62v3.9a.655.655,0,0,1-1.31,0V2.62a1.312,1.312,0,0,0-1.31-1.31H29.62a1.312,1.312,0,0,0-1.31,1.31V14.148a1.312,1.312,0,0,0,1.31,1.31h1.507A.655.655,0,0,1,31.782,16.113ZM37.673,4.585a.655.655,0,0,0-.655-.655H30.271a.655.655,0,0,0,0,1.31h6.747A.655.655,0,0,0,37.673,4.585Zm-2.616,2.62A.655.655,0,0,0,34.4,6.55h-4.13a.655.655,0,0,0,0,1.31H34.4A.655.655,0,0,0,35.057,7.205ZM30.271,9.17a.655.655,0,0,0,0,1.31h2.722a.655.655,0,0,0,0-1.31ZM41.7,16.281a1.311,1.311,0,0,1-1.02.487h-6.4a1.324,1.324,0,0,1-1.293-1.6,4.615,4.615,0,0,1,1.578-2.612,4.569,4.569,0,0,1,1-.625,2.555,2.555,0,1,1,3.834,0,4.564,4.564,0,0,1,1,.625,4.616,4.616,0,0,1,1.565,2.551c.005.017.009.035.013.052A1.335,1.335,0,0,1,41.7,16.281ZM36.236,10.25A1.245,1.245,0,1,0,37.48,9.005,1.246,1.246,0,0,0,36.236,10.25Zm4.454,5.19h0a3.277,3.277,0,0,0-6.418,0,.017.017,0,0,0,.007.02h6.4A.031.031,0,0,0,40.689,15.44Z" transform="translate(-27)" fill="#fff"/>
</svg>
