<svg xmlns="http://www.w3.org/2000/svg" width="16" height="16" viewBox="0 0 16 16"><circle cx="8" cy="8" r="8" fill="#fff"/><circle cx="6.852" cy="6.852" r="6.852" transform="translate(1.088 1.088)" fill="#f7931a"/><path d="M4784.453-594.671a1.7,1.7,0,0,1-.362.487,1.65,1.65,0,0,1-1.106.377,4.425,4.425,0,0,1-.946-.09c-.069-.014-.093.008-.109.073-.084.355-.175.708-.258,1.063-.017.075-.041.088-.112.068-.187-.052-.379-.1-.571-.142-.065-.015-.073-.042-.057-.1.088-.347.169-.7.258-1.043.02-.077.005-.1-.072-.121-.144-.03-.285-.069-.425-.11-.056-.016-.076,0-.088.053-.084.355-.175.708-.258,1.063-.018.075-.041.095-.119.072-.181-.053-.367-.1-.552-.138-.078-.017-.086-.05-.068-.121.087-.347.167-.7.256-1.043.022-.082,0-.109-.076-.129-.435-.107-.868-.22-1.3-.327-.064-.016-.082-.032-.051-.1.04-.085.071-.174.1-.261.061-.138.127-.274.182-.414.028-.079.06-.106.148-.079a4.435,4.435,0,0,0,.453.111.257.257,0,0,0,.326-.214q.39-1.584.776-3.168a.616.616,0,0,0,.036-.259.448.448,0,0,0-.4-.352,4.187,4.187,0,0,1-.43-.108c-.038-.01-.038-.034-.03-.066.056-.226.111-.452.164-.678.016-.067.06-.049.1-.039l1.013.256c.1.026.206.045.308.074.062.018.085.006.1-.061.082-.346.169-.69.251-1.036.019-.085.046-.115.137-.087.176.052.355.1.534.133.089.018.091.054.073.129-.084.326-.163.653-.243.979-.028.12-.028.12.085.147.13.031.262.057.391.094.072.021.095,0,.111-.072.078-.336.165-.671.243-1.008.018-.077.044-.1.119-.075.183.05.367.095.553.138.067.016.09.041.07.117-.091.346-.17.695-.262,1.04-.023.087.012.11.078.133a2.867,2.867,0,0,1,.975.535,1.178,1.178,0,0,1,.424,1.011,1.381,1.381,0,0,1-.391.931,1.147,1.147,0,0,1-.455.26c-.023.008-.059.008-.062.033s.031.042.054.056a1.557,1.557,0,0,1,.538.5,1.269,1.269,0,0,1,.122.963c-.024.117-.061.231-.092.346,0,.014-.009.029-.015.043Zm-1.863-1.694a5.658,5.658,0,0,0-1.277-.4c-.049-.011-.058.014-.069.052-.123.506-.245,1.013-.372,1.519-.012.048,0,.069.045.08a7.26,7.26,0,0,0,.938.2,1.765,1.765,0,0,0,.875-.059.69.69,0,0,0,.325-1A1.193,1.193,0,0,0,4782.59-596.365Zm.692-1.29a.676.676,0,0,0-.122-.84,1.136,1.136,0,0,0-.25-.176,4.035,4.035,0,0,0-1.037-.333c-.048-.012-.067.007-.08.051-.111.458-.224.915-.335,1.373-.009.036-.007.057.035.068a3.756,3.756,0,0,0,1.147.182A.705.705,0,0,0,4783.282-597.655Z" transform="translate(-4773.832 604.93)" fill="#fefefe"/></svg>