<svg xmlns="http://www.w3.org/2000/svg" width="16" height="16" viewBox="0 0 16 16"><g transform="translate(0 0)"><path d="M5598.219-560.822a3.979,3.979,0,0,0-1.006-.32c-.048-.011-.068.007-.079.049-.109.44-.216.88-.328,1.319-.009.035-.008.054.035.065a3.682,3.682,0,0,0,1.115.176.691.691,0,0,0,.625-.313.645.645,0,0,0-.119-.807A1.131,1.131,0,0,0,5598.219-560.822Z" transform="translate(-5588.957 566.937)" fill="#216efb"/><path d="M5587.964-521.009a5.5,5.5,0,0,0-1.242-.382c-.048-.01-.057.013-.066.05q-.179.73-.362,1.46c-.01.046,0,.066.044.077a7.1,7.1,0,0,0,.914.194,1.732,1.732,0,0,0,.85-.057.658.658,0,0,0,.313-.959A1.144,1.144,0,0,0,5587.964-521.009Z" transform="translate(-5579.107 529.882)" fill="#216efb"/><path d="M5492.031-646.559a8,8,0,0,0-10.75,3.516,8,8,0,0,0,3.518,10.751,8,8,0,0,0,10.75-3.517A8,8,0,0,0,5492.031-646.559Zm-.025,6.01a1.608,1.608,0,0,1-.458,1.082,1.344,1.344,0,0,1-.537.3c-.026.009-.068.009-.075.039s.039.048.066.066a1.845,1.845,0,0,1,.633.585,1.461,1.461,0,0,1,.144,1.12c-.028.135-.071.267-.108.4l-.016.051c-.026.057-.055.115-.083.172a1.946,1.946,0,0,1-.427.566,1.952,1.952,0,0,1-1.3.438,5.2,5.2,0,0,1-1.11-.1c-.082-.016-.109.009-.131.084-.1.412-.205.823-.3,1.235-.02.087-.05.1-.135.079-.221-.061-.444-.114-.669-.165-.077-.017-.085-.048-.067-.121.1-.4.2-.81.3-1.213.023-.089.007-.121-.086-.14-.168-.034-.333-.08-.5-.128-.065-.019-.089-.005-.1.062-.1.412-.206.822-.3,1.235-.021.087-.049.11-.139.084-.216-.061-.432-.114-.651-.161-.091-.02-.1-.058-.08-.141.1-.4.2-.809.3-1.212.024-.1,0-.127-.091-.149-.51-.125-1.019-.256-1.532-.38-.078-.019-.1-.037-.062-.113.047-.1.083-.2.125-.3.073-.16.149-.318.212-.481.033-.092.072-.123.173-.092.176.053.357.094.534.129a.305.305,0,0,0,.385-.249c.3-1.227.606-2.454.914-3.682a.75.75,0,0,0,.039-.3.524.524,0,0,0-.473-.409,5,5,0,0,1-.506-.125c-.044-.011-.042-.04-.034-.076.064-.263.13-.525.192-.788.019-.078.069-.057.119-.044l1.193.3c.121.03.242.052.362.086.074.021.1.007.117-.07.1-.4.2-.8.3-1.2.023-.1.053-.134.161-.1q.311.091.627.155c.1.021.106.063.086.15-.1.378-.194.758-.287,1.138-.032.139-.032.139.1.171.154.036.309.066.459.11.089.025.114,0,.132-.083.094-.391.2-.78.285-1.172.021-.09.052-.111.139-.087.215.058.432.11.649.161.08.019.108.048.085.137-.107.4-.2.807-.308,1.208-.029.1.013.129.092.155a3.343,3.343,0,0,1,1.145.622A1.357,1.357,0,0,1,5492.006-640.549Z" transform="translate(-5480.416 647.426)" fill="#216efb"/></g></svg>