<svg xmlns="http://www.w3.org/2000/svg" width="16" height="16" viewBox="0 0 16 16"><g transform="translate(0 0.002)"><path d="M5602.394-216.9Z" transform="translate(-5594.393 223.367)" fill="#d5d5d5"/><path d="M5488.221-315.6a8,8,0,0,0-8,8,8,8,0,0,0,8,8,8,8,0,0,0,8-8A8,8,0,0,0,5488.221-315.6Zm3.676,8.914q-1.808,2.5-3.617,5a.159.159,0,0,1-.062.069c-.025-.009-.031-.032-.045-.05q-1.808-2.5-3.618-5.007c-.013-.019-.024-.039-.04-.058s-.01-.017-.007-.018.017,0,.021.006c.256.146.511.29.764.437l2.867,1.664c.021.012.042.024.061.036l2.518-1.462,1.112-.645c.023-.014.05-.027.076-.042C5491.934-306.713,5491.911-306.7,5491.9-306.681Zm-.009-.741-1.989,1.152-1.566.913a.271.271,0,0,1-.107.045c-.039.015-.064-.016-.091-.031q-1.79-1.037-3.576-2.076c-.025-.014-.062-.02-.062-.06,0-.009,0-.017.016-.017h0a.173.173,0,0,1,.036-.076l3.621-5.9c.013-.021.01-.075.065-.05a.172.172,0,0,1,.06.079l3.623,5.906c.01.017.021.036.03.054C5491.94-307.449,5491.911-307.436,5491.889-307.423Z" transform="translate(-5480.222 315.594)" fill="#216efb"/></g></svg>