<svg xmlns="http://www.w3.org/2000/svg" width="16" height="16" viewBox="0 0 16 16"><g transform="translate(0 0)"><circle cx="8" cy="8" r="8" transform="translate(0 0)" fill="#fff"/><path d="M7,0a7,7,0,1,0,7,7A7,7,0,0,0,7,0ZM9.552,9.414a2.175,2.175,0,0,1-.733.683,3.227,3.227,0,0,1-1.009.364,5.884,5.884,0,0,1-1.108.1,5.28,5.28,0,0,1-1.444-.2,2.626,2.626,0,0,1-1.1-.6L5.49,8.433a1.958,1.958,0,0,0,.463.347,1.749,1.749,0,0,0,.832.187,1.883,1.883,0,0,0,.656-.1.385.385,0,0,0,.292-.386.427.427,0,0,0-.259-.4,2.825,2.825,0,0,0-.656-.226c-.088-.022-.182-.044-.276-.061l-.375.38-.5-.11.38-.386-.077-.017a3.677,3.677,0,0,1-.854-.314,1.74,1.74,0,0,1-.656-.6A1.841,1.841,0,0,1,4.2,5.721a2.117,2.117,0,0,1,.243-1.036,2.237,2.237,0,0,1,.645-.717A2.772,2.772,0,0,1,6,3.555a4.239,4.239,0,0,1,1.053-.132,4.864,4.864,0,0,1,1.356.2A2.583,2.583,0,0,1,9.453,4.2L8.18,5.479a1.479,1.479,0,0,0-1.113-.457,1.159,1.159,0,0,0-.518.127.444.444,0,0,0-.254.435.391.391,0,0,0,.259.369,3.549,3.549,0,0,0,.656.209c.088.022.176.039.27.061l.369-.375.5.116-.369.375a.459.459,0,0,1,.083.022,3.273,3.273,0,0,1,.854.331,1.883,1.883,0,0,1,.656.612,1.841,1.841,0,0,1,.259,1.031A1.794,1.794,0,0,1,9.552,9.414Z" transform="translate(1 1)" fill="#216efb"/></g></svg>