<svg xmlns="http://www.w3.org/2000/svg" width="40" height="40" viewBox="0 0 40 40">
  <g id="Group_12072" data-name="Group 12072" transform="translate(-58 -58)">
    <path id="Path_12418" data-name="Path 12418" d="M412.167,378H408v3.333h4.167A.833.833,0,0,0,413,380.5v-1.667A.833.833,0,0,0,412.167,378Z" transform="translate(-320.833 -293.333)" fill="#1951b9"/>
    <path id="Path_12419" data-name="Path 12419" d="M327.167,318a9.167,9.167,0,1,0,9.167,9.167A9.167,9.167,0,0,0,327.167,318Zm5,7.5a2.486,2.486,0,0,1-.65,1.667,2.486,2.486,0,0,1,.65,1.667V330.5a2.5,2.5,0,0,1-2.5,2.5h-.833v1.667h-1.667V333h-.827l.013,1.66-1.667.013L324.673,333h-2.507v-1.667h1.667V323h-1.667v-1.667h2.507l.013-1.673,1.667.013-.013,1.66h.827v-1.667h1.667v1.667h.833a2.5,2.5,0,0,1,2.5,2.5Z" transform="translate(-238.333 -238.333)" fill="#1951b9"/>
    <path id="Path_12420" data-name="Path 12420" d="M412.167,438H408v3.333h4.167A.833.833,0,0,0,413,440.5v-1.667A.833.833,0,0,0,412.167,438Z" transform="translate(-320.833 -348.333)" fill="#1951b9"/>
    <path id="Path_12421" data-name="Path 12421" d="M67.167,58a9.167,9.167,0,1,0,9.167,9.167A9.167,9.167,0,0,0,67.167,58Zm0,8.333c2.3,0,4.167,1.495,4.167,3.333A3.626,3.626,0,0,1,68,72.932v1.734H66.333V72.932A3.626,3.626,0,0,1,63,69.667a.833.833,0,0,1,1.667,0c0,.9,1.145,1.667,2.5,1.667s2.5-.763,2.5-1.667S68.521,68,67.167,68C64.869,68,63,66.505,63,64.667A3.626,3.626,0,0,1,66.333,61.4V59.667H68V61.4a3.626,3.626,0,0,1,3.333,3.266.833.833,0,0,1-1.667,0c0-.9-1.145-1.667-2.5-1.667s-2.5.763-2.5,1.667S65.812,66.333,67.167,66.333Z" fill="#1951b9"/>
    <path id="Path_12422" data-name="Path 12422" d="M303.3,105.572l-2.113-2.113h3.822a7.508,7.508,0,0,1,7.5,7.5v4.167h1.667v-4.167a9.178,9.178,0,0,0-9.167-9.167H301.19l2.113-2.113L302.124,98.5,298,102.625l4.124,4.125Z" transform="translate(-220 -37.125)" fill="#1951b9"/>
    <path id="Path_12423" data-name="Path 12423" d="M124.042,307.553l2.113,2.113h-2.988a7.508,7.508,0,0,1-7.5-7.5V298H114v4.167a9.178,9.178,0,0,0,9.167,9.167h2.988l-2.113,2.113,1.178,1.178,4.124-4.125-4.124-4.125Z" transform="translate(-51.333 -220)" fill="#1951b9"/>
  </g>
</svg>
