<svg id="Group_12071" data-name="Group 12071" xmlns="http://www.w3.org/2000/svg" width="39.012" height="39.012" viewBox="0 0 39.012 39.012">
  <path id="Path_12416" data-name="Path 12416" d="M34.429,18.287a3.416,3.416,0,0,0,2.378-.962l3.364,1.682a3.428,3.428,0,1,0,6.5-1.055l4.572-4.572a3.429,3.429,0,0,0,4.749-4.119L59.96,6.282a3.424,3.424,0,1,0-1.373-1.828L54.615,7.433a3.428,3.428,0,0,0-4.993,4.331L45.05,16.336a3.422,3.422,0,0,0-3.855.627L37.83,15.281a3.428,3.428,0,1,0-3.4,3.006Zm27.43-16a1.143,1.143,0,1,1-1.143,1.143A1.144,1.144,0,0,1,61.859,2.286ZM52.716,9.143a1.143,1.143,0,1,1-1.143,1.143A1.144,1.144,0,0,1,52.716,9.143Zm-9.143,9.143a1.143,1.143,0,1,1-1.143,1.143A1.144,1.144,0,0,1,43.572,18.287Zm-9.143-4.572a1.143,1.143,0,1,1-1.143,1.143A1.144,1.144,0,0,1,34.429,13.715Z" transform="translate(-28.638)" fill="#1951b9"/>
  <path id="Path_12417" data-name="Path 12417" d="M37.869,175.3H36.65V151.143A1.143,1.143,0,0,0,35.507,150H30.935a1.143,1.143,0,0,0-1.143,1.143V175.3H27.506V158a1.143,1.143,0,0,0-1.143-1.143H21.792A1.143,1.143,0,0,0,20.649,158v17.3H18.363v-8.153A1.143,1.143,0,0,0,17.22,166H12.648a1.143,1.143,0,0,0-1.143,1.143V175.3H9.22V162.572a1.143,1.143,0,0,0-1.143-1.143H3.5a1.143,1.143,0,0,0-1.143,1.143V175.3H1.143a1.143,1.143,0,1,0,0,2.286H37.869a1.143,1.143,0,1,0,0-2.286Zm-5.791-23.011h2.286V175.3H32.078Zm-9.143,6.858H25.22V175.3H22.935Zm-9.143,9.143h2.286v7.01H13.791Zm-9.143-4.572H6.934V175.3H4.648Z" transform="translate(0 -138.571)" fill="#1951b9"/>
</svg>
