<svg xmlns="http://www.w3.org/2000/svg" xmlns:xlink="http://www.w3.org/1999/xlink" width="15" height="18.527" viewBox="0 0 15 18.527">
  <defs>
    <clipPath id="clip-path">
      <path id="Path_11630" data-name="Path 11630" d="M0-18.527H15V0H0Z" transform="translate(0 18.527)" fill="#4d4d4d"/>
    </clipPath>
  </defs>
  <g id="Group_10422" data-name="Group 10422" clip-path="url(#clip-path)">
    <g id="Group_10420" data-name="Group 10420" transform="translate(2.56 0)">
      <path id="Path_11627" data-name="Path 11627" d="M0,0,.036.036-1.125-1.125a.79.79,0,0,0-.524-.23.724.724,0,0,0-.521.205L-3.328.012h0L-4.81,1.489H-4.8l-1.342,1.34a.74.74,0,0,0-.161.8.752.752,0,0,0,.683.459h1.068V8.6a.718.718,0,0,0,.727.729H.534A.716.716,0,0,0,1.262,8.6V4.083H2.331a.743.743,0,0,0,.68-.459.734.734,0,0,0-.142-.776Z" transform="translate(6.361 1.355)" fill="#4d4d4d"/>
    </g>
    <g id="Group_10421" data-name="Group 10421" transform="translate(0 7.842)">
      <path id="Path_11628" data-name="Path 11628" d="M0,0H-2.653l.027,1.477H0a.892.892,0,0,1,.89.886V8.342A.89.89,0,0,1,0,9.229H-10.272a.886.886,0,0,1-.886-.887v-6a.888.888,0,0,1,.886-.887h2.154L-8.1,0H-10.3a2.351,2.351,0,0,0-2.339,2.34V8.318a2.379,2.379,0,0,0,2.364,2.368H0A2.379,2.379,0,0,0,2.364,8.318V2.34A2.356,2.356,0,0,0,0,0" transform="translate(12.636)" fill="#4d4d4d"/>
    </g>
    <path id="Path_11629" data-name="Path 11629" d="M3.022-3.826h8.956v1.451H3.022Z" transform="translate(0 18.527)" fill="#4d4d4d"/>
  </g>
</svg>
